<svg xmlns="http://www.w3.org/2000/svg" width="73.09" height="73.09" viewBox="0 0 73.09 73.09"><defs><style>.a{fill:none;}.b{fill:#37269d;}</style></defs><path class="a" d="M0,0H73.09V73.09H0Z"/><path class="b" d="M19.227,11.091a3.054,3.054,0,0,0-3.045,3.045v9.136H7.045a3.045,3.045,0,1,0,0,6.091h9.136V38.5a3.045,3.045,0,1,0,6.091,0V29.363h9.136a3.045,3.045,0,0,0,0-6.091H22.272V14.136A3.054,3.054,0,0,0,19.227,11.091Zm33.5,33.5H46.636V12.248L37.5,15.354V10.177L51.813,5h.914Z" transform="translate(8.182 10.227)"/></svg>