<svg xmlns="http://www.w3.org/2000/svg" width="131.533" height="127.094" viewBox="0 0 131.533 127.094"><defs><style>.a{fill:#f2f2f2;}</style></defs><g transform="translate(5.028 -105.897) rotate(13)"><path class="a" d="M37.191,108.85H58.739c-1.256-.955-2.525-1.923-3.781-2.878.628,1.91,1.256,3.82,1.884,5.743q2.276,6.888,4.54,13.776,2.728,8.282,5.469,16.589,2.375,7.2,4.736,14.4c.772,2.329,1.5,4.671,2.3,6.986.013.039.026.065.039.1A3.928,3.928,0,0,0,81.5,161.5c-.628-1.91-1.256-3.82-1.884-5.743q-2.276-6.888-4.54-13.776-2.728-8.3-5.469-16.6-2.375-7.2-4.736-14.4c-.772-2.329-1.491-4.671-2.3-6.986-.013-.039-.026-.065-.039-.1A4.045,4.045,0,0,0,58.752,101H37.2a3.925,3.925,0,0,0-.013,7.85Z" transform="translate(0)"/><path class="a" d="M295.217,543.468q-3.179,5.672-6.371,11.33c-.3.549-.615,1.086-.916,1.635a3.961,3.961,0,0,0,3.389,5.9h59.921c2.761,0,5.534.052,8.308,0h.118a3.925,3.925,0,0,0,0-7.85H299.744c-2.761,0-5.547-.078-8.308,0h-.118c1.125,1.962,2.263,3.938,3.388,5.9q3.179-5.672,6.371-11.33c.3-.549.615-1.086.916-1.635a3.922,3.922,0,1,0-6.777-3.951Z" transform="translate(-220.896 -382.927)"/><circle class="a" cx="8.91" cy="8.91" r="8.91" transform="translate(117.679 186.799)"/><path class="a" d="M658.4,748.48a11.715,11.715,0,0,0,7.693,10.859,11.533,11.533,0,0,0,12.573-3.349,11.525,11.525,0,1,0-20.266-7.51,2.617,2.617,0,1,0,5.233,0c0-.209.013-.432.026-.641a1.946,1.946,0,0,1,.026-.275c.039-.523-.013.17-.026.157a5.075,5.075,0,0,1,.314-1.282c.039-.1.118-.549.209-.576.026-.013-.235.484-.092.222a3.335,3.335,0,0,0,.144-.314,11.927,11.927,0,0,1,.667-1.112c.249-.379-.353.406.065-.078.131-.144.262-.3.406-.445s.288-.288.432-.419c.065-.052.131-.118.2-.17.092-.078.471-.262.131-.118-.288.118-.078.065.013,0s.183-.131.288-.2a4.969,4.969,0,0,1,.445-.262c.2-.118.406-.209.615-.314.065-.039.34-.17,0-.013-.392.183.131-.039.17-.052a8.092,8.092,0,0,1,1.1-.314c.118-.026.235-.039.353-.065.288-.065-.249.026-.249.026.235,0,.484-.052.72-.052a10.5,10.5,0,0,1,1.282.039c.484.039-.5-.092.1.026.236.039.458.1.693.157.2.052.393.118.589.183a3,3,0,0,1,.327.118c.013.039-.484-.249-.222-.092.366.222.772.393,1.138.628.092.065.183.131.288.2s.288.118.013,0-.092-.078,0,.013l.262.222a11.72,11.72,0,0,1,.89.916c.392.432-.183-.3.065.078.1.17.222.327.327.5s.209.353.3.523l.118.235c.249.471.052-.039-.013-.065.157.052.327.994.379,1.164s.078.353.118.523c.1.5-.013-.157-.013-.17.065.065.039.366.039.445a9.053,9.053,0,0,1,0,1.191,3.207,3.207,0,0,0-.026.366c-.013.262-.157.222.026-.157a4.071,4.071,0,0,0-.144.693c-.092.366-.235.72-.34,1.086-.1.327.235-.445.065-.144a1.281,1.281,0,0,0-.1.235c-.1.209-.209.406-.327.6-.1.17-.209.34-.327.51-.353.536.249-.262-.052.092a9.933,9.933,0,0,1-.89.929c-.052.052-.366.393-.458.393,0,0,.536-.366.118-.1-.078.052-.144.092-.209.144-.366.235-.746.432-1.125.628-.406.209.471-.157-.092.039-.2.065-.379.131-.576.2s-.392.1-.6.157c-.092.013-.17.039-.262.052-.576.131.419-.026.078,0a10.512,10.512,0,0,1-1.282.052c-.209,0-.419-.026-.641-.039-.078,0-.392-.039-.013,0,.432.039-.092-.026-.183-.039a9.9,9.9,0,0,1-1.348-.393c-.078-.026-.34-.157-.013,0,.379.183-.078-.039-.157-.078-.209-.1-.406-.209-.6-.327s-.379-.249-.576-.379c-.314-.2.039.1.118.1-.052,0-.222-.183-.262-.222a9.658,9.658,0,0,1-.968-.968,1.545,1.545,0,0,1-.222-.262c0,.052.314.445.1.118-.131-.2-.262-.379-.379-.576-.131-.222-.249-.458-.366-.68-.275-.536.131.419-.078-.17a9.507,9.507,0,0,1-.379-1.361.845.845,0,0,0-.052-.262c.2.432.039.366.013.065q-.039-.412-.039-.824a2.65,2.65,0,0,0-5.3-.013Z" transform="translate(-543.337 -552.771)"/><circle class="a" cx="8.91" cy="8.91" r="8.91" transform="translate(72.581 186.799)"/><path class="a" d="M313.7,748.48a11.715,11.715,0,0,0,7.693,10.859,11.533,11.533,0,0,0,12.573-3.349,11.526,11.526,0,1,0-20.266-7.51,2.617,2.617,0,1,0,5.233,0c0-.209.013-.432.026-.641a1.95,1.95,0,0,1,.026-.275c.039-.523-.013.17-.026.157a5.078,5.078,0,0,1,.314-1.282c.039-.1.118-.549.209-.576.026-.013-.236.484-.092.222a3.344,3.344,0,0,0,.144-.314,11.907,11.907,0,0,1,.667-1.112c.249-.379-.353.406.065-.078.131-.144.262-.3.406-.445s.288-.288.432-.419c.065-.052.131-.118.2-.17.092-.078.471-.262.131-.118-.288.118-.078.065.013,0s.183-.131.288-.2a4.969,4.969,0,0,1,.445-.262c.2-.118.406-.209.615-.314.065-.039.34-.17,0-.013-.392.183.131-.039.17-.052a8.09,8.09,0,0,1,1.1-.314c.118-.026.236-.039.353-.065.288-.065-.249.026-.249.026.236,0,.484-.052.72-.052a10.5,10.5,0,0,1,1.282.039c.484.039-.5-.092.1.026.235.039.458.1.693.157.2.052.392.118.589.183a3,3,0,0,1,.327.118c.013.039-.484-.249-.222-.092.366.222.772.393,1.138.628.092.065.183.131.288.2s.288.118.013,0-.092-.078,0,.013l.262.222a11.715,11.715,0,0,1,.89.916c.393.432-.183-.3.065.078.1.17.222.327.327.5s.209.353.3.523l.118.235c.249.471.052-.039-.013-.065.157.052.327.994.379,1.164s.078.353.118.523c.1.5-.013-.157-.013-.17.065.065.039.366.039.445a9.042,9.042,0,0,1,0,1.191,3.214,3.214,0,0,0-.026.366c-.013.262-.157.222.026-.157a4.077,4.077,0,0,0-.144.693c-.092.366-.236.72-.34,1.086-.1.327.235-.445.065-.144a1.285,1.285,0,0,0-.1.235c-.1.209-.209.406-.327.6-.1.17-.209.34-.327.51-.353.536.249-.262-.052.092a9.937,9.937,0,0,1-.89.929c-.052.052-.366.393-.458.393,0,0,.536-.366.118-.1-.078.052-.144.092-.209.144-.366.235-.746.432-1.125.628-.406.209.471-.157-.092.039-.2.065-.379.131-.576.2s-.393.1-.6.157c-.092.013-.17.039-.262.052-.576.131.419-.026.078,0a10.512,10.512,0,0,1-1.282.052c-.209,0-.419-.026-.641-.039-.078,0-.392-.039-.013,0,.432.039-.092-.026-.183-.039a9.9,9.9,0,0,1-1.348-.393c-.078-.026-.34-.157-.013,0,.379.183-.078-.039-.157-.078-.209-.1-.406-.209-.6-.327s-.379-.249-.576-.379c-.314-.2.039.1.118.1-.052,0-.222-.183-.262-.222a9.658,9.658,0,0,1-.968-.968,1.545,1.545,0,0,1-.222-.262c0,.052.314.445.1.118-.131-.2-.262-.379-.379-.576-.131-.222-.249-.458-.366-.68-.275-.536.131.419-.078-.17a9.511,9.511,0,0,1-.379-1.361.846.846,0,0,0-.052-.262c.2.432.039.366.013.065q-.039-.412-.039-.824a2.65,2.65,0,0,0-5.3-.013Z" transform="translate(-243.733 -552.771)"/><g transform="translate(61.568 118.873)"><path class="a" d="M360.117,258l-15.883,40.95H283.2L269.7,258Z" transform="translate(-267.06 -255.333)"/><path class="a" d="M340.054,239.559q-2.689,6.928-5.364,13.855-4.278,11.049-8.543,22.084c-.654,1.688-1.308,3.389-1.962,5.076.837-.641,1.688-1.282,2.525-1.923H273.186c-2.46,0-4.945-.1-7.418,0h-.1c.837.641,1.688,1.282,2.525,1.923q-2.3-6.967-4.579-13.92-3.631-11.009-7.248-22.032c-.563-1.688-1.112-3.375-1.675-5.076-.837,1.1-1.688,2.211-2.525,3.31h86.754c1.177,0,2.355.026,3.519,0h.157a2.617,2.617,0,0,0,0-5.233H255.838c-1.177,0-2.355-.026-3.519,0h-.157a2.64,2.64,0,0,0-2.525,3.31q2.3,6.967,4.579,13.92,3.631,11.009,7.248,22.032c.563,1.688,1.112,3.375,1.675,5.076a2.7,2.7,0,0,0,2.525,1.923h53.523c2.46,0,4.945.092,7.418,0h.1a2.719,2.719,0,0,0,2.525-1.923q2.689-6.928,5.364-13.855,4.278-11.049,8.543-22.084c.654-1.688,1.308-3.389,1.962-5.076a2.625,2.625,0,0,0-1.832-3.218A2.685,2.685,0,0,0,340.054,239.559Z" transform="translate(-249.522 -237.611)"/></g></g></svg>