<svg xmlns="http://www.w3.org/2000/svg" width="155.01" height="155.01" viewBox="0 0 155.01 155.01"><defs><style>.a{fill:#f2f2f2;}</style></defs><path class="a" d="M48.468,0A16.362,16.362,0,0,0,36.836,4.524a16.362,16.362,0,0,0-4.524,11.632c0,4.524,2.908,7.755,4.524,11.632.485.969.485,2.585.485,4.524H0v96.936H37.32a15.954,15.954,0,0,0-.485-4.524c-1.616-3.877-4.524-7.109-4.524-11.632a16.362,16.362,0,0,1,4.524-11.632,16.362,16.362,0,0,1,11.632-4.524A16.362,16.362,0,0,1,60.1,101.46a16.362,16.362,0,0,1,4.524,11.632c0,4.524-2.908,7.755-4.524,11.632-.485.969-.485,2.585-.485,4.524h37.32V91.928a15.953,15.953,0,0,1,4.524.485c3.877,1.616,7.109,4.524,11.632,4.524a16.161,16.161,0,1,0,0-32.312c-4.524,0-7.755,2.908-11.632,4.524-.969.485-2.585.485-4.524.485V32.312H59.616a15.953,15.953,0,0,1,.485-4.524c1.616-3.877,4.524-7.109,4.524-11.632A16.362,16.362,0,0,0,60.1,4.524,16.362,16.362,0,0,0,48.468,0Z" transform="translate(0 29.075) rotate(-13)"/></svg>