<svg xmlns="http://www.w3.org/2000/svg" width="122.469" height="122.393" viewBox="0 0 122.469 122.393"><defs><style>.a{fill:#f2f2f2;}</style></defs><g transform="translate(0 4.132) rotate(-2)"><path class="a" d="M110.117,42.577V25.416L92.854,16.785,76.069,0,59.206,4.214,42.342,0,25.557,16.785,8.295,25.416V42.577L0,59.166,8.295,75.756V92.917l17.263,8.631,16.785,16.785,16.863-4.214,16.863,4.214,16.785-16.785,17.263-8.631V75.756l8.295-16.589Zm-7.832,31.33V88.076l-13.5,6.752L73.672,109.655l-14.467-3.619-14.467,3.619-14.1-14.1L16.119,88.068V73.907L8.757,59.166l7.37-14.741V30.257l13.5-6.752L44.747,8.671l14.467,3.619L73.68,8.671l14.1,14.1L102.3,30.257V44.426l7.355,14.741Z"/><rect class="a" width="66.458" height="7.832" transform="translate(32.937 79.897) rotate(-45.001)"/><path class="a" d="M15.47,27.214A11.749,11.749,0,1,0,3.721,15.465,11.763,11.763,0,0,0,15.47,27.214Zm0-15.665a3.916,3.916,0,1,1-3.916,3.916A3.918,3.918,0,0,1,15.47,11.549Zm31.33,23.5A11.749,11.749,0,1,0,58.548,46.795,11.763,11.763,0,0,0,46.8,35.046Zm0,15.665a3.916,3.916,0,1,1,3.916-3.916A3.918,3.918,0,0,1,46.8,50.711Z" transform="translate(28.071 28.037)"/></g></svg>