<svg xmlns="http://www.w3.org/2000/svg" width="146.151" height="146.598" viewBox="0 0 146.151 146.598"><defs><style>.a{fill:#f2f2f2;}</style></defs><g transform="translate(-3.342 5.67) rotate(-3)"><g transform="translate(0 0.018)"><path class="a" d="M63.762,71.5A28.01,28.01,0,1,0,91.773,99.514,28.01,28.01,0,0,0,63.762,71.5Zm-2.241,25.77H66c3.707,0,6.723,2.681,6.723,5.976v3.734c0,3.3-3.016,5.976-6.723,5.976v3.361a2.241,2.241,0,1,1-4.482,0v-3.361c-3.707,0-6.723-2.681-6.723-5.976a2.241,2.241,0,1,1,4.482,0c0,.707.92,1.494,2.241,1.494H66c1.321,0,2.241-.787,2.241-1.494v-3.734c0-.707-.92-1.494-2.241-1.494H61.521c-3.707,0-6.723-2.681-6.723-5.976V92.044c0-3.3,3.016-5.976,6.723-5.976V82.707a2.241,2.241,0,0,1,4.482,0v3.361c3.707,0,6.723,2.681,6.723,5.976a2.241,2.241,0,0,1-4.482,0c0-.707-.92-1.494-2.241-1.494H61.521c-1.321,0-2.241.787-2.241,1.494v3.734c0,.707.92,1.494,2.241,1.494Z" transform="translate(7.946 15.869)"/><path class="a" d="M40.037,95.114a32.436,32.436,0,0,1,50.709,0,37.419,37.419,0,0,0,11.62-27.148c0-12.452-12.948-30.786-24.02-44.186L85.321,9.888a2.243,2.243,0,0,0-.129-2.236c-.175-.266-4.358-6.527-11.138-7.483A13.972,13.972,0,0,0,63.727,3.1,12.386,12.386,0,0,0,54.353.076C47.744.871,43.512,7.4,43.334,7.678a2.243,2.243,0,0,0-.06,2.309l8.363,14.767c-10.886,13.3-23.22,31.06-23.22,43.212a37.419,37.419,0,0,0,11.62,27.148Zm23.114-39.1h4.482a6.73,6.73,0,0,1,6.723,6.723v4.482a6.73,6.73,0,0,1-6.723,6.723v4.482a2.241,2.241,0,1,1-4.482,0V73.945a6.73,6.73,0,0,1-6.723-6.722,2.241,2.241,0,1,1,4.482,0,2.243,2.243,0,0,0,2.241,2.241h4.482a2.243,2.243,0,0,0,2.241-2.241V62.741A2.243,2.243,0,0,0,67.633,60.5H63.151a6.73,6.73,0,0,1-6.723-6.723V49.3a6.73,6.73,0,0,1,6.723-6.723V38.092a2.241,2.241,0,0,1,4.482,0v4.482A6.73,6.73,0,0,1,74.355,49.3a2.241,2.241,0,1,1-4.482,0,2.243,2.243,0,0,0-2.241-2.241H63.151A2.243,2.243,0,0,0,60.91,49.3v4.482A2.243,2.243,0,0,0,63.151,56.018ZM47.893,9.048c1.23-1.506,3.81-4.148,7.013-4.524,2.333-.277,4.734.749,7.129,3.043a2.24,2.24,0,0,0,1.55.623h.146a2.243,2.243,0,0,0,1.46-.541C67.972,5.26,70.735,4.235,73.4,4.6c3.414.471,6.052,3.077,7.282,4.53L74.022,22.406H55.458Z" transform="translate(6.316 -0.018)"/><path class="a" d="M28.011,108.273a27.921,27.921,0,0,0,11.28-2.374c-.045-.7-.076-1.4-.076-2.108,0-.772.037-1.536.09-2.295v0c.022-.2.034-.415.045-.627l0,0a32.257,32.257,0,0,1,4.421-13.647,42.022,42.022,0,0,1-9.153-12.2,2.231,2.231,0,0,1-2.129-2.23c0-.706-.919-1.49-2.241-1.49H25.77c-1.322,0-2.241.784-2.241,1.49v3.742c0,.706.919,1.49,2.241,1.49h4.482c3.709,0,6.723,2.678,6.723,5.972v3.742c0,3.294-3.014,5.972-6.723,5.972v3.361a2.241,2.241,0,1,1-4.482,0V93.708c-3.709,0-6.723-2.678-6.723-5.972a2.241,2.241,0,1,1,4.482,0c0,.706.919,1.49,2.241,1.49h4.482c1.322,0,2.241-.784,2.241-1.49V83.994c0-.706-.919-1.49-2.241-1.49H25.77c-3.709,0-6.723-2.678-6.723-5.972V72.789c0-3.294,3.014-5.972,6.723-5.972V63.456a2.241,2.241,0,1,1,4.482,0v3.361a7.6,7.6,0,0,1,1.345.123c.044.171.1.338.146.508a42.065,42.065,0,0,1-1.491-11.092,25.8,25.8,0,0,1,.343-3.982c-.85-.078-1.711-.123-2.584-.123a28.011,28.011,0,1,0,0,56.021ZM115.4,52.252c-.872,0-1.734.045-2.584.123a25.8,25.8,0,0,1,.343,3.982,42.108,42.108,0,0,1-1.389,10.733c.015-.055.032-.1.045-.149a7.6,7.6,0,0,1,1.345-.123V63.456a2.241,2.241,0,1,1,4.482,0v3.361c3.709,0,6.723,2.678,6.723,5.972a2.241,2.241,0,0,1-4.482,0c0-.706-.919-1.49-2.241-1.49h-4.482c-1.322,0-2.241.784-2.241,1.49v3.742c0,.706.919,1.49,2.241,1.49h4.482c3.709,0,6.723,2.678,6.723,5.972v3.742c0,3.294-3.014,5.972-6.723,5.972v3.361a2.241,2.241,0,1,1-4.482,0V93.708c-3.709,0-6.723-2.678-6.723-5.972a2.241,2.241,0,1,1,4.482,0c0,.706.919,1.49,2.241,1.49h4.482c1.322,0,2.241-.784,2.241-1.49V83.994c0-.706-.919-1.49-2.241-1.49h-4.482a6.728,6.728,0,0,1-6.328-3.972,42.066,42.066,0,0,1-7.2,8.685,32.256,32.256,0,0,1,4.422,13.648l0,0c.01.123.015.247.025.37.066.844.11,1.694.11,2.554,0,.709-.031,1.41-.076,2.108A28.01,28.01,0,1,0,115.4,52.252Z" transform="translate(0 11.591)"/></g></g></svg>