<svg xmlns="http://www.w3.org/2000/svg" width="138.431" height="133.207" viewBox="0 0 138.431 133.207"><defs><style>.a,.b{fill:#f2f2f2;}.a{opacity:0;}</style></defs><g transform="matrix(0.996, -0.087, 0.087, 0.996, 0, 11.177)"><rect class="a" width="128.243" height="122.496" transform="translate(128.243 122.496) rotate(180)"/><path class="b" d="M93.958,24.177H91.77a15.09,15.09,0,0,0,1.066-5.293C92.591,9.92,84.719,2.825,75.215,3a25.221,25.221,0,0,0-21.661,12.7A25.221,25.221,0,0,0,31.894,3c-9.5-.178-17.375,6.917-17.62,15.88a15.09,15.09,0,0,0,1.066,5.293H13.151a11.435,11.435,0,0,0-7.625,3.835,10.179,10.179,0,0,0-2.475,7.81V54.879a11.053,11.053,0,0,0,8.417,11.646V89.657a9.625,9.625,0,0,0,10.157,8.628h63.86a9.609,9.609,0,0,0,10.157-8.84V66.524a11.053,11.053,0,0,0,8.417-11.646V35.822a10.179,10.179,0,0,0-2.475-7.81,11.435,11.435,0,0,0-7.625-3.835ZM92.836,35.822V54.879a2.8,2.8,0,0,1,0,1.059H59.166V34.764h33.67a2.8,2.8,0,0,1,0,1.059ZM75.215,13.59a5.951,5.951,0,0,1,6.4,5.293,5.951,5.951,0,0,1-6.4,5.293h-13.8A16.258,16.258,0,0,1,75.215,13.59ZM25.5,18.883a5.951,5.951,0,0,1,6.4-5.293A16.254,16.254,0,0,1,45.642,24.177H31.894A5.951,5.951,0,0,1,25.5,18.883ZM14.274,35.822a2.8,2.8,0,0,1,0-1.059h33.67V55.937H14.274a2.8,2.8,0,0,1,0-1.059Zm8.417,30.7H47.943V87.7H22.691ZM59.166,87.7V66.524H84.418V87.7Z" transform="translate(10.759 10.796)"/></g></svg>