<svg xmlns="http://www.w3.org/2000/svg" width="103.171" height="111.901" viewBox="0 0 103.171 111.901"><defs><style>.a{fill:#f2f2f2;}</style></defs><g transform="matrix(0.978, 0.208, -0.208, 0.978, 202.728, -949.714)"><path class="a" d="M52.75,966.945c-5.667,0-10.688,5.7-11.333,11.333l-1.948,17H30.083a6.094,6.094,0,0,0-5.667,5.667l-5.667,56.667a6.094,6.094,0,0,0,5.667,5.667H98.083a6.094,6.094,0,0,0,5.667-5.667l-5.667-56.667a6.094,6.094,0,0,0-5.667-5.667H83.031l-1.948-17c-.645-5.63-5.667-11.333-11.333-11.333Zm0,5.667h17c2.833,0,5.344,2.852,5.667,5.667l1.948,17H45.135l1.948-17c.322-2.815,2.833-5.667,5.667-5.667Z" transform="translate(0 0)"/></g></svg>