<svg xmlns="http://www.w3.org/2000/svg" width="166.68" height="166.68" viewBox="0 0 166.68 166.68"><defs><style>.a{fill:none;}.b{fill:#f2f2f2;}</style></defs><g transform="translate(42.692) rotate(19)"><path class="a" d="M0,0H131.132V131.132H0Z"/><path class="b" d="M110.053,56.344,60.906,7.2A11,11,0,0,0,53.175,4H14.928A10.925,10.925,0,0,0,4,14.928V53.175a10.81,10.81,0,0,0,3.224,7.731L56.4,110.08a10.915,10.915,0,0,0,15.435,0L110.08,71.834a10.948,10.948,0,0,0-.027-15.49ZM23.123,31.319a8.2,8.2,0,1,1,8.2-8.2A8.185,8.185,0,0,1,23.123,31.319Z" transform="translate(6.928 6.928)"/></g></svg>