<svg xmlns="http://www.w3.org/2000/svg" width="125.684" height="121.888" viewBox="0 0 125.684 121.888"><defs><style>.a{fill:#f2f2f2;}</style></defs><g transform="translate(-2.766 5.599) rotate(-6)"><path class="a" d="M107.129,7a9.739,9.739,0,0,0-9.739,9.739v4.869H2.435A2.435,2.435,0,0,0,0,24.043,51.13,51.13,0,0,0,22.4,66.31a12.174,12.174,0,1,0,16.556,11.3,12.028,12.028,0,0,0-.779-4.139,49.474,49.474,0,0,0,25.906,0,12.028,12.028,0,0,0-.779,4.139,12.174,12.174,0,1,0,16.556-11.3,51.13,51.13,0,0,0,22.4-42.267v-7.3a4.869,4.869,0,1,1,9.739,0v2.435a2.435,2.435,0,0,0,4.869,0V16.739A9.739,9.739,0,0,0,107.129,7Z" transform="translate(0 27.087)"/><path class="a" d="M34.868,37.252a2.435,2.435,0,0,0,3.9-1.948V2.435A2.435,2.435,0,0,0,36.329,0,50.594,50.594,0,0,0,4.677,10.908a2.435,2.435,0,0,0,0,3.7Z" transform="translate(14.801 0)"/><path class="a" d="M2.635,30.159H42.224a2.435,2.435,0,0,0,1.461-4.383L14.468,4.01a2.435,2.435,0,0,0-3.311.39A51.129,51.129,0,0,0,.249,27.237a2.435,2.435,0,0,0,2.386,2.922Z" transform="translate(0.773 13.667)"/></g></svg>