<svg xmlns="http://www.w3.org/2000/svg" width="130.988" height="128.696" viewBox="0 0 130.988 128.696"><defs><style>.a{fill:#f2f2f2;}</style></defs><path class="a" d="M112.53,40.222h-3.154a3.154,3.154,0,1,0,0,6.308h3.154a6.308,6.308,0,1,1,0,12.616h-4.668A40.75,40.75,0,0,0,92.218,39.654,25.232,25.232,0,1,0,44.781,28.047a27,27,0,0,0,.442,4.542,42.958,42.958,0,0,0-6.75,2.4l-19.618-3.28a5.867,5.867,0,0,0-5.046,9.9l6.813,6.813a37.155,37.155,0,0,0-6.308,10.724L6.049,61.858a5.74,5.74,0,0,0-3.343,2.965,5.677,5.677,0,0,0,0,4.416l3.911,11.8a5.93,5.93,0,0,0,5.551,3.974h3.217a41.507,41.507,0,0,0,13.184,16.4v12.616a8.579,8.579,0,0,0,8.39,8.642h6.308a8.516,8.516,0,0,0,8.39-7.128l.757-4.353a57.466,57.466,0,0,0,18.924,0v3.154a8.516,8.516,0,0,0,8.516,8.516h6.308a8.516,8.516,0,0,0,8.453-7.128l2.839-17.158A37.029,37.029,0,0,0,110.07,71.258a33.18,33.18,0,0,0-.5-5.614h2.965a12.616,12.616,0,1,0,0-25.232ZM51.089,28.047a18.925,18.925,0,1,1,35.83,8.39,55.575,55.575,0,0,0-25.737-6.308A56.394,56.394,0,0,0,51.4,31.2a17.852,17.852,0,0,1-.315-3.154ZM40.429,62.3a3.154,3.154,0,1,1,3.154-3.154A3.217,3.217,0,0,1,40.429,62.3Z" transform="matrix(0.998, 0.07, -0.07, 0.998, 6.317, -2.592)"/></svg>