<svg xmlns="http://www.w3.org/2000/svg" width="126.935" height="126.935" viewBox="0 0 126.935 126.935"><defs><style>.a{fill:#f2f2f2;}</style></defs><g transform="matrix(0.951, 0.309, -0.309, 0.951, 30.487, -1.26)"><path class="a" d="M92.578,1H10.158A9.158,9.158,0,0,0,1,10.158v82.42a9.158,9.158,0,0,0,9.158,9.158h82.42a9.158,9.158,0,0,0,9.158-9.158V10.158A9.158,9.158,0,0,0,92.578,1ZM14.737,21.605a6.868,6.868,0,0,1,6.868-6.868H39.921a6.868,6.868,0,0,1,6.868,6.868V39.921a6.868,6.868,0,0,1-6.868,6.868H21.605a6.868,6.868,0,0,1-6.868-6.868Zm30.312,54.26c1.053,3.434,2.2,9.158-.778,11.264s-8.15-.321-11.218-2.2A18.315,18.315,0,0,1,24.673,88a4.579,4.579,0,0,1-2.885-.87c-2.931-2.244-1.832-7.83-.778-11.264-3.159-2.885-7.143-7.372-6.273-10.76s6.868-3.984,10.669-3.8c1.557-4.4,4.029-9.936,7.647-9.936s6.09,5.54,7.464,9.89c3.755,0,9.524,0,10.669,3.8S48.254,72.98,45.049,75.865ZM81.68,88H62.174a6.227,6.227,0,0,1-6.227-6.227,6.09,6.09,0,0,1,.366-2.061,2.289,2.289,0,0,1,0-.412L66.02,60.068h0a6.136,6.136,0,0,1,11.493,0h0l9.753,19.506A6.044,6.044,0,0,1,81.772,88Zm-9.707-41.21A16.026,16.026,0,1,1,88,30.763,16.026,16.026,0,0,1,71.973,46.789Z"/></g></svg>