<svg xmlns="http://www.w3.org/2000/svg" width="108" height="120" viewBox="0 0 108 120"><defs><style>.a{fill:#6563ff;}.b{fill:#b2b1ff;}</style></defs><g transform="translate(-3 -2)"><path class="a" d="M54.241,69.758a6,6,0,0,0-8.484,0L38,77.516V8A6,6,0,0,0,26,8V77.516l-7.758-7.758a6,6,0,1,0-8.484,8.484l18,18a6,6,0,0,0,8.484,0l18-18a6,6,0,0,0,0-8.484Z" transform="translate(25.001)"/><path class="b" d="M93,9H63V42.516l7.758-7.758a6,6,0,1,1,8.484,8.484l-18,18a6,6,0,0,1-8.484,0l-18-18a6,6,0,1,1,8.484-8.484L51,42.516V9H21A18.02,18.02,0,0,0,3,27V69A18.02,18.02,0,0,0,21,87H93a18.02,18.02,0,0,0,18-18V27A18.02,18.02,0,0,0,93,9Z" transform="translate(0 35)"/></g></svg>