<svg xmlns="http://www.w3.org/2000/svg" width="16.863" height="12.647" viewBox="0 0 16.863 12.647"><defs><style>.a{fill:#c7c7c7;}</style></defs><path class="a" d="M16.543,68.176a.2.2,0,0,1,.319.155v6.735a1.581,1.581,0,0,1-1.581,1.581H1.581A1.581,1.581,0,0,1,0,75.066V68.334a.2.2,0,0,1,.319-.155c.738.573,1.716,1.3,5.075,3.741.695.507,1.867,1.574,3.037,1.568,1.176.01,2.371-1.08,3.04-1.568C14.831,69.48,15.806,68.749,16.543,68.176ZM8.431,72.431c.764.013,1.864-.962,2.417-1.364,4.37-3.172,4.7-3.448,5.711-4.239a.788.788,0,0,0,.3-.622v-.626A1.581,1.581,0,0,0,15.282,64H1.581A1.581,1.581,0,0,0,0,65.581v.626a.793.793,0,0,0,.3.622c1.008.787,1.34,1.067,5.711,4.239C6.567,71.47,7.667,72.445,8.431,72.431Z" transform="translate(0 -64)"/></svg>