<svg xmlns="http://www.w3.org/2000/svg" width="44.785" height="44.786" viewBox="0 0 44.785 44.786"><defs><style>.a{fill:#231f20;}</style></defs><path class="a" d="M30.382,7.989A22.393,22.393,0,1,0,52.775,30.381,22.417,22.417,0,0,0,30.382,7.989Zm6.329,14.136a.4.4,0,0,1-.4.4l-2.545,0c-1.68,0-1.987.654-1.987,1.942v2.672h4.366a.4.4,0,0,1,.3.136.4.4,0,0,1,.1.315L35.92,32.4a.4.4,0,0,1-.4.349H31.779V44.7a.4.4,0,0,1-.4.4H26.412a.4.4,0,0,1-.4-.4V32.751H22.257a.4.4,0,0,1-.4-.4V27.54a.4.4,0,0,1,.4-.4h3.756V23.992c0-4.17,2.524-6.76,6.587-6.76a34.743,34.743,0,0,1,3.764.193.4.4,0,0,1,.347.4Z" transform="translate(-7.99 -7.989)"/></svg>