<svg xmlns="http://www.w3.org/2000/svg" width="60.17" height="60" viewBox="0 0 60.17 60"><defs><style>.a{fill:#ffffff;}</style></defs><g transform="translate(0 -0.045)"><path class="a" d="M17.785,11.644A5.643,5.643,0,1,1,12.144,6,5.643,5.643,0,0,1,17.785,11.644Z" transform="translate(17.941 16.436)"/><path class="a" d="M26.058,4H16.506A6.506,6.506,0,0,0,10,10.506V22.8a3.761,3.761,0,0,0,3.761,3.761V49.127H28.8V26.564A3.761,3.761,0,0,0,32.564,22.8v-12.3A6.506,6.506,0,0,0,26.058,4Z" transform="translate(27.606 10.918)"/><path class="a" d="M26.041,7.4A7.521,7.521,0,1,1,18.52.045,7.521,7.521,0,0,1,26.041,7.4Z" transform="translate(30.368 0)"/><path class="a" d="M16.058,5H6.506a6.508,6.508,0,1,0,6.51,6.506A6.508,6.508,0,0,0,6.506,5,6.506,6.506,0,0,0,0,11.506v8.537A3.761,3.761,0,0,0,3.761,23.8L0,35.085H3.761V46.367H18.8V35.085h3.761L18.8,23.8a3.761,3.761,0,0,0,3.761-3.761V11.506A6.506,6.506,0,0,0,16.058,5Z" transform="translate(0 13.678)"/><path class="a" d="M16.041,8.4A7.521,7.521,0,1,1,8.52,1.045,7.521,7.521,0,0,1,16.041,8.4Z" transform="translate(2.762 2.761)"/><path class="a" d="M9.761,24.042V35.324h7.521V24.042a3.761,3.761,0,0,0,3.761-3.761V14.491A5.491,5.491,0,0,0,15.552,9H11.491A5.491,5.491,0,0,0,6,14.491v5.791A3.761,3.761,0,0,0,9.761,24.042Z" transform="translate(16.564 24.721)"/></g></svg>