<svg xmlns="http://www.w3.org/2000/svg" width="44.785" height="44.786" viewBox="0 0 44.785 44.786"><defs><style>.a{fill:#231f20;}</style></defs><path class="a" d="M57.329,62.289a4.342,4.342,0,1,0-4.479-4.34A4.412,4.412,0,0,0,57.329,62.289Z" transform="translate(-34.915 -35.37)"/><path class="a" d="M75.24,47.3h2.521a1.007,1.007,0,0,0,1-1.005v-2.4a1.008,1.008,0,0,0-1-1.006H75.24a1.007,1.007,0,0,0-1,1.006v2.4A1.007,1.007,0,0,0,75.24,47.3Z" transform="translate(-47.751 -28.934)"/><path class="a" d="M57.935,62.2a6.937,6.937,0,0,1-13.868,0,6.524,6.524,0,0,1,.287-1.915H42.306V69.7a.887.887,0,0,0,.886.885H58.723a.887.887,0,0,0,.887-.885V60.282H57.648a6.511,6.511,0,0,1,.287,1.915Z" transform="translate(-28.587 -39.376)"/><path class="a" d="M30.382,7.989A22.393,22.393,0,1,0,52.775,30.381,22.417,22.417,0,0,0,30.382,7.989ZM41.535,38.9a2.87,2.87,0,0,1-2.863,2.862H22.094A2.871,2.871,0,0,1,19.231,38.9V22.327a2.872,2.872,0,0,1,2.863-2.863H38.673a2.871,2.871,0,0,1,2.863,2.863V38.9Z" transform="translate(-7.99 -7.989)"/></svg>