<svg xmlns="http://www.w3.org/2000/svg" xmlns:xlink="http://www.w3.org/1999/xlink" width="753.394" height="559.324" viewBox="0 0 753.394 559.324"><defs><style>.a{fill:#7168db;}.a,.b{opacity:0.19;}.b{fill:#3a0d83;}.c{fill:#68e1fd;}.d{fill:url(#a);}.e{fill:url(#b);}.f{fill:url(#c);}.g{fill:#311b92;}.h{fill:#25233a;}.i{fill:url(#d);}.j{fill:url(#e);}.k{fill:url(#f);}.l{fill:url(#g);}.m{fill:url(#h);}.n{fill:url(#i);}.o{fill:url(#j);}.p{fill:url(#k);}.q{fill:url(#l);}.r{fill:url(#m);}.s{fill:url(#n);}.t{fill:url(#o);}.u{fill:url(#p);}.v{fill:url(#q);}.w{fill:url(#r);}.x{fill:url(#s);}.y{fill:url(#t);}.z{fill:url(#u);}</style><linearGradient id="a" x1="0.831" y1="0.169" x2="0.233" y2="1.098" gradientUnits="objectBoundingBox"><stop offset="0" stop-opacity="0"/><stop offset="0.88" stop-opacity="0.8"/><stop offset="0.97"/></linearGradient><linearGradient id="b" y1="0.5" x2="1" y2="0.5" gradientUnits="objectBoundingBox"><stop offset="0" stop-color="#ecc4d7"/><stop offset="0.42" stop-color="#efd4d1"/><stop offset="1" stop-color="#f2eac9"/></linearGradient><linearGradient id="c" x1="0" y1="0.5" x2="1.001" y2="0.5" xlink:href="#b"/><linearGradient id="d" x1="0" y1="0.5" x2="1" y2="0.5" xlink:href="#b"/><linearGradient id="e" x1="0" y1="0.5" x2="1" y2="0.5" xlink:href="#b"/><linearGradient id="f" x1="-0.007" y1="0.498" x2="0.995" y2="0.498" xlink:href="#b"/><linearGradient id="g" x1="0.347" y1="0.448" x2="3.025" y2="1.476" xlink:href="#b"/><linearGradient id="h" x1="0.009" y1="0.623" x2="1.057" y2="0.407" xlink:href="#a"/><linearGradient id="i" x1="-0.137" y1="0.29" x2="1.644" y2="0.899" xlink:href="#a"/><linearGradient id="j" x1="0.443" y1="0.466" x2="1.258" y2="1.076" xlink:href="#b"/><linearGradient id="k" x1="-1.06" y1="0.598" x2="1.07" y2="0.457" xlink:href="#a"/><linearGradient id="l" x1="-0.01" y1="0.294" x2="0.771" y2="0.67" xlink:href="#a"/><linearGradient id="m" x1="0.151" y1="0.125" x2="0.845" y2="0.696" xlink:href="#a"/><linearGradient id="n" x1="-1.095" y1="0.246" x2="2.46" y2="0.784" xlink:href="#a"/><linearGradient id="o" x1="0.5" y1="-1.37" x2="0.5" y2="1.872" xlink:href="#a"/><linearGradient id="p" x1="0.594" y1="0.058" x2="0.352" y2="0.945" xlink:href="#b"/><linearGradient id="q" x1="2.182" y1="0.356" x2="-1.384" y2="0.662" xlink:href="#a"/><linearGradient id="r" x1="2.14" y1="0.301" x2="-1.539" y2="0.713" xlink:href="#a"/><linearGradient id="s" x1="-0.639" y1="0.058" x2="3.159" y2="1.533" gradientUnits="objectBoundingBox"><stop offset="0" stop-color="#fff" stop-opacity="0"/><stop offset="0.84" stop-color="#fff" stop-opacity="0.839"/><stop offset="0.97" stop-color="#fff"/></linearGradient><linearGradient id="t" x1="1.566" y1="-0.058" x2="-0.672" y2="1.098" xlink:href="#a"/><linearGradient id="u" x1="-0.831" y1="0.533" x2="1.019" y2="0.484" xlink:href="#a"/></defs><g transform="translate(0.015 -0.003)"><path class="a" d="M735.72,388.217c-22.9,42.408-68.36,73.514-116.559,73.218-17.316-.118-34.735-4.044-51.844-1.141-11.85,2.029-22.989,7.288-34.069,12.22-56.6,25.315-124.928,42.719-178.52,11.539C323.3,465.76,298.959,431.8,262.891,427.929c-22.411-2.4-43.993,7.7-64.908,16.116-30.1,12.1-63.383,21.226-94.711,12.813-32.958-8.888-57.428-35.446-73.751-66.108a209.548,209.548,0,0,1-10.813-23.7C-6.577,301.3-4.815,221.991,37.016,165.3c31.58-42.9,81.646-68.2,132.009-85.379,115.611-39.431,228.438-.963,347.456-7.688,32.247-1.822,65.723-4.8,95.852,6.814,23.982,9.228,43.682,26.959,61.176,45.771,32.824,35.3,60.376,76.551,73.707,122.869a212.347,212.347,0,0,1,8.191,51.4C756.443,330.048,750.384,361.051,735.72,388.217Z" transform="translate(-2.14 -61.87)"/><path class="b" d="M726.819,328.38c-22.9,42.408-68.36,73.514-116.559,73.218-17.316-.118-34.735-4.044-51.844-1.141-11.85,2.029-22.989,7.288-34.069,12.22-56.6,25.315-124.928,42.719-178.52,11.539-31.432-18.293-55.769-52.258-91.837-56.124-22.411-2.4-43.993,7.7-64.908,16.116-30.1,12.1-63.383,21.226-94.711,12.813-32.958-8.888-57.428-35.446-73.751-66.108,12.487-5.718,27.418-2.7,41.238-.741A232.674,232.674,0,0,0,185.29,313.878c41.312-17.686,84.431-47.03,131.475-36.335,45.919,10.369,89.5,45.771,138.615,38.512,18.293-2.7,34.869-12.265,49.607-23.4,32.987-24.944,59.028-58.376,93.082-81.839s81.75-35.18,116.071-12.1c14.605,9.821,24.737,24.515,32.35,40.6C747.542,270.211,741.484,301.214,726.819,328.38Z" transform="translate(6.761 -2.033)"/><path class="c" d="M386.076,111.35l36.616,57.769-27.773,16.99-36.379,7.925Z" transform="translate(172.554 53.585)"/><path class="d" d="M386.076,111.35l36.616,57.769-27.773,16.99-36.379,7.925Z" transform="translate(172.554 53.585)"/><path class="e" d="M208.36,337.81c.4.074,16.516,107.894,16.516,107.894s11.717,2.814,11.3,0,1.615-37.3,4.014-44.112-4.444-63.782-4.444-63.782Z" transform="translate(97.11 70.924)"/><path class="f" d="M243.66,339.2s2.414,54.48,7.214,68.137S261.7,449.095,261.7,449.095h14.813L273.789,338.06S256.9,326.877,243.66,339.2Z" transform="translate(114.098 68.807)"/><path class="g" d="M217.44,405.779c3.674-.474,7.406,1.1,11.065.7a17.776,17.776,0,0,1,4.666-.459,1.022,1.022,0,0,1,.652.3,1.066,1.066,0,0,1,.163.711v4.888c0,2.355,0,4.933-1.481,6.784s-4.236,2.518-6.71,2.725a5.184,5.184,0,0,1-2.385-.193,5.556,5.556,0,0,1-1.926-1.555c-1.644-1.792-2.888-2.829-3.111-5.244C218.344,413.659,217.559,405.779,217.44,405.779Z" transform="translate(101.48 103.591)"/><path class="g" d="M270.625,407.213a1.555,1.555,0,0,1,1.881,1.807,45.205,45.205,0,0,1-.681,10.473,7.408,7.408,0,0,1-.741,2.666c-1.067,1.866-3.451,2.429-5.584,2.548-3.244.207-6.917-.4-8.887-2.962a12.294,12.294,0,0,1-1.733-5.229c-.341-1.926-1.022-3.777-1.333-5.688-.281-1.644.148-2.444,1.822-2.681,2.355-.356,4.814-.4,7.2-.548C265.277,407.391,267.958,407.272,270.625,407.213Z" transform="translate(118.817 104.304)"/><path class="h" d="M199.774,444.1a5.184,5.184,0,0,0,.267,2.726,6.132,6.132,0,0,0,3.851,3.081c5.392,1.851,21.893-9.391,27.107-11.687a77.584,77.584,0,0,0,13.109-7.066c.415-.3-.667-14.812-.963-17.02a1.244,1.244,0,0,0-.356-.9,1.482,1.482,0,0,0-.711-.207c-2.488-.207-4.992,0-7.5,0a33.239,33.239,0,0,1-3.836-.163,18.294,18.294,0,0,0-3.5-.637c-1.9.207-5.54,6.162-7.184,7.08C201.27,429.832,200.278,440.571,199.774,444.1Z" transform="translate(92.942 106.734)"/><path class="h" d="M253.541,426.8a12.887,12.887,0,0,0-.355,4.31c.43,2.237,2.37,3.836,4.192,5.214,3.333,2.5,21.493,20.649,32.054,14.813a4.073,4.073,0,0,0,1.481-1.837,7.6,7.6,0,0,0,.667-2.7,19.849,19.849,0,0,0-2.533-11.672c-1.807-3.111-12.65-12.605-13.746-16.027-.667-2.074-.874-4.607-2.726-5.777a1.481,1.481,0,0,0-.859-.281,2.341,2.341,0,0,0-1.259.578c-3.229,2.163-7.406,1.6-11.109,1.066-1.081-.163-3.377-1.481-4.266-.889-1.318.918-1.155,4.592-1.215,5.925a61.882,61.882,0,0,1-.326,7.273Z" transform="translate(118.659 107.037)"/><path class="i" d="M269.49,196.87s50.274-31.314,51.073-31.995,51.607-41.979,57.4-47.77,10.206-15.642,18.308-12.442,8.28,15.835-2.044,27.344c-1.229,1.378-9.273,1.2-9.569,1.57-.7.829-2.192,2.444-6.68,7.406s-31.965,34.765-47.933,42.408-46.9,40.571-46.9,40.571Z" transform="translate(126.529 -41.578)"/><path class="j" d="M235.226,195.351c-2.029,2.37-46.97-22.93-46.97-22.93l-53.043-53.932s-9.124-7.954-15.6,2.962,9.791,21.567,9.791,21.567l10.621,1.718s25.744,42.808,32.1,44.956,52.955,39.994,53.4,35.046S235.226,195.351,235.226,195.351Z" transform="translate(53.669 -35.97)"/><path class="h" d="M212.186,144.6c-1.392,14.1,1.126,29.284,10.369,39.994,2.177,2.548,4.829,5.066,5.214,8.4a26.2,26.2,0,0,1-.311,4.918,5.925,5.925,0,0,0,1.274,4.607,2.74,2.74,0,0,0,4.222-.326l3.762,7.954A3.54,3.54,0,0,0,238.2,212a3.288,3.288,0,0,0,2,0,29.907,29.907,0,0,0,11.7-4.888,3.762,3.762,0,0,1,1.481-.77c2.444-.385,2.963,3.777,5.318,4.681,1.777.7,3.585-.844,4.873-2.252l5.125-5.555a8.517,8.517,0,0,0,4.266,4.162,19.091,19.091,0,0,1,2.3-4.444,23.016,23.016,0,0,0,.859,8.162l2.592-3.214c.237-.311.548-.652.948-.622a1.259,1.259,0,0,1,.7.385l4.236,3.748c-2.192-6.473-1.215-13.553.326-20.189s3.629-13.331,3.614-20.086c0-8.754-3.5-17.079-6.9-25.181A43.978,43.978,0,0,0,276,135.391c-3.466-4.444-8.413-7.258-13.331-9.85a41.609,41.609,0,0,0-13.583-5.036,44.008,44.008,0,0,0-11.243.37q-5.925.711-11.924,1.481c-3.437.489-4.977.681-7.169,3.377C214.438,131.155,212.838,138,212.186,144.6Z" transform="translate(98.779 -33.75)"/><path class="k" d="M258.269,150.565a5.51,5.51,0,0,1-.548,3.585,24.711,24.711,0,0,1-1.985,3.125,19.366,19.366,0,0,1-1.97,2.666,4.444,4.444,0,0,1-2.888,1.481c-4.177.133-2.548-6.858-1.155-9.05C251.248,149.81,257.01,145.425,258.269,150.565Z" transform="translate(116.286 -20.335)"/><path class="l" d="M252.413,152.749a9.318,9.318,0,0,0,.844-1.555,2.873,2.873,0,0,1,1.141-1.333,1.318,1.318,0,0,1,1.615.207c.474.592.163,1.481-.207,2.1-.859,1.481-.829,3.881-2.177,4.977a10.222,10.222,0,0,1-2.192,1.126,6.192,6.192,0,0,1-2.963,0c-.4-.3.5-2.3.459-2.8a3.145,3.145,0,0,1,.163-1.481c.163-.237.874,0,1.17,0a3.11,3.11,0,0,0,2.148-1.244Z" transform="translate(116.365 -19.616)"/><path class="c" d="M88.924,181.37,50.13,228.222l57.695,51.266,16.4-14.812,5.5-78.7C129.925,183.784,88.924,181.37,88.924,181.37Z" transform="translate(20.962 -4.362)"/><path class="m" d="M88.924,181.37,50.13,228.222l57.695,51.266,16.4-14.812,5.5-78.7C129.925,183.784,88.924,181.37,88.924,181.37Z" transform="translate(20.962 -4.362)"/><path class="g" d="M322.347,192.887a4.9,4.9,0,0,1-1.244,2.5,82.507,82.507,0,0,1-7.91,9.376c-4.444,4.31-9.91,7.777-12.857,13.213-4.207,7.777-.963,79.513-.652,92.3.089,3.659-56.687,5.925-81.572,3.214.326-13.139,7.836-36.009,5.14-48.881-2.177-10.369-3.822-4.533-9.45-21.434-2.311-6.9-.592-15.227.637-22.411.815-4.844-20.974-13.6-23.818-18.96a62.049,62.049,0,0,1,1.392-10.369h0a63.144,63.144,0,0,1,6.266-16.723,5.214,5.214,0,0,1,2.029-2.37,5.406,5.406,0,0,1,3.392-.119,119.343,119.343,0,0,1,24.989,7.406c7.525,3.14,15.346,1.792,23.27.726a190.978,190.978,0,0,0,56.776-16.916q6.458,13.479,12.917,26.944A4.917,4.917,0,0,1,322.347,192.887Z" transform="translate(88.573 -12.991)"/><path class="n" d="M309.681,187.045a4.9,4.9,0,0,1-1.244,2.5,82.505,82.505,0,0,1-7.91,9.376c-4.444,4.31-9.91,7.777-12.857,13.213-4.207,7.777-.963,79.513-.652,92.3.074,3.17-42.5,5.288-70.078,4.044l46.245-3.54s19.612-68.819,14.694-87.157c-4.444-16.575,14.812-35.831,26.781-42.2l4.34,9.05A4.918,4.918,0,0,1,309.681,187.045Z" transform="translate(101.239 -7.149)"/><path class="o" d="M232.972,171.5c-.163-2.133-.474-4.444.592-6.281a9.391,9.391,0,0,1,4.784-3.348c3.525-1.481,7.865-2.888,10.917-.592a9.45,9.45,0,0,1,3.051,5.673,49.83,49.83,0,0,1,.785,13.924c-.237,4.088-.785,8.428-3.422,11.554a20.736,20.736,0,0,1-6.251,4.444c-3.17,1.689-7.317,3.3-10.073.992C225.121,191.072,233.594,180.14,232.972,171.5Z" transform="translate(107.397 -14.612)"/><path class="c" d="M215.215,266.592l-18.575,112s19.019,3.5,63-1.644c24.589-2.859,42.378-2.014,53.325-.711a8.8,8.8,0,0,0,9.569-10.917l-25.7-101.939S221.51,256.031,215.215,266.592Z" transform="translate(91.47 33.907)"/><path class="p" d="M312.918,376.234c-4.518-.548-10.206-.992-17.064-1.141a262.772,262.772,0,0,0-36.216,1.852c-43.978,5.14-63,1.644-63,1.644l18.575-112c3.985-6.7,35.683-6.192,58.361-4.933h.281c11.687.652,20.915,1.481,22.633,1.674h.3v.089l.4,1.6,25.27,100.251a8.8,8.8,0,0,1-9.539,10.961Z" transform="translate(91.47 33.907)"/><path class="c" d="M128.605,125.57l-31.2,64.523h2.829l29.329-62.835S130.131,125.57,128.605,125.57Z" transform="translate(43.716 -31.216)"/><path class="c" d="M119.12,188.715l9.791-54.525,2.266.37-9.628,56.391S119.283,192.907,119.12,188.715Z" transform="translate(54.163 -27.068)"/><path class="c" d="M77.405,167.354s54.806-7.762,82.209,18.175l7.006,7.584L143.41,253.844s-12.828,9.036-25.181,6.488-35.372-8.547-35.372-8.547-7.406-2.37-7.406-13.672S77.405,167.354,77.405,167.354Z" transform="translate(33.147 -11.631)"/><path class="q" d="M77.405,167.354s54.806-7.762,82.209,18.175l7.006,7.584L143.41,253.844s-12.828,9.036-25.181,6.488-35.372-8.547-35.372-8.547-7.406-2.37-7.406-13.672S77.405,167.354,77.405,167.354Z" transform="translate(33.147 -11.631)"/><path class="c" d="M348.988,62.11,337.02,143.119h1.748L350.781,62.11Z" transform="translate(162.197 29.889)"/><path class="c" d="M351.56,61.584l13.879,66.967,2.592-.459L352.923,59.94Z" transform="translate(169.194 28.845)"/><path class="c" d="M331.92,190.319s34.069-28.988,62.8-21.819h9.3s-5.644,54.969-3.762,68.626-40.675,27.981-43.875,27.225-15.242.755-16.753-16.945S331.92,190.319,331.92,190.319Z" transform="translate(156.573 -11.104)"/><path class="r" d="M331.92,190.319s34.069-28.988,62.8-21.819h9.3s-5.644,54.969-3.762,68.626-40.675,27.981-43.875,27.225-15.242.755-16.753-16.945S331.92,190.319,331.92,190.319Z" transform="translate(156.573 -11.104)"/><path class="c" d="M120.91,127l-5.51,77.025h2.755L122.6,127S121.414,124.974,120.91,127Z" transform="translate(52.373 -30.96)"/><path class="c" d="M119.85,69.15l16.175,69.189,3.481-.978L121.894,71.105Z" transform="translate(57.685 33.277)"/><path class="c" d="M104.354,117.838l19.227.43,39.5-4.518,20.293,77.988-55.31,28.6-30.5-5.3Z" transform="translate(46.962 54.74)"/><path class="s" d="M128.069,219.012,123.581,116.94l-19.227-.43-6.784,97.2Z" transform="translate(46.962 56.069)"/><path class="c" d="M341.66,132.275l9.524,1.7,16.6,3.762,34.039-16.2L372.8,117.67Z" transform="translate(164.43 56.627)"/><path class="t" d="M341.66,132.275l9.524,1.7,16.6,3.762,34.039-16.2L372.8,117.67Z" transform="translate(164.43 56.627)"/><path class="c" d="M401.828,120.28l-34.039,16.2-26.129-5.466,3.3,73.011,22.826,7.865,35.461-19.167Z" transform="translate(164.43 57.883)"/><path class="u" d="M224.478,179.648c4.222,7.9,13.331,13.939,22.026,11.583,6.473-1.763,11.006-7.643,13.776-13.746a85.527,85.527,0,0,0,5.273-17.538c1.259-5.762,2.37-11.717,1.274-17.508a24.085,24.085,0,0,0-25.077-18.782C216.005,126.145,215.191,162.229,224.478,179.648Z" transform="translate(102.263 -32.162)"/><path class="h" d="M238.98,111.877c10.458-2.222,22.219-.341,30.188,6.725s11.657,18.753,20.2,25.507c2.755,2.177,6.384,3.822,9.747,2.785a11.731,11.731,0,0,1-10.369,6.71,10.8,10.8,0,0,0,5.244,2.962,12.428,12.428,0,0,1-9.273,4.8,4.592,4.592,0,0,1,1.718,2.8c-3.6,1.852-7.91,1.674-11.85.83a25.063,25.063,0,0,1-16.116-11.539c-8.443-14.916-23.226-25.833-35.017-7.14-3.673-2.444-7.584-5.258-8.191-9.613C213.547,123.786,228.137,114.172,238.98,111.877Z" transform="translate(100.366 -38.23)"/><path class="c" d="M346.31,62.211v98.607h2.637L347.628,61.9Z" transform="translate(166.668 29.788)"/><path class="c" d="M349.39,61.806l26.87,87.823h2.488L351.271,61.48Z" transform="translate(168.15 29.586)"/><path class="v" d="M364.695,132.442v75.41l-14.679-10.087L348.09,128.68Z" transform="translate(167.525 61.926)"/><path class="w" d="M344.963,200.541l8.147-2.222-1.926-69.085-9.524-1.7Z" transform="translate(164.43 61.372)"/><path class="x" d="M393.339,120.28l-34.039,16.2V211.9l14.679-7.925Z" transform="translate(172.919 57.883)"/><path class="y" d="M214.438,211.679c.815-4.844-20.974-13.6-23.818-18.96a62.055,62.055,0,0,1,1.392-10.369h0s23.019,10.058,24.278,15.894S214.438,211.679,214.438,211.679Z" transform="translate(88.573 -3.891)"/><path class="z" d="M287.97,375.984c-4.518-.548-10.206-.992-17.064-1.141l-17.775-62.835s-5.806-45.726-4.444-50.6h.281l22.633,1.674h.3v.089l.4,1.6,25.27,100.251a8.8,8.8,0,0,1-9.6,10.961Z" transform="translate(116.418 34.157)"/></g></svg>